<svg xmlns="http://www.w3.org/2000/svg" viewBox="0 0 512 512" fill="#D4AF37">
  <!-- A golden airplane taking off -->
  <path d="M497.9 142.1l-46.1 46.1c-4.7 4.7-11.6 6.6-18.1 5.3l-145-28.7-184.2 184.2c16.6 22 23.3 50.7 16.9 78.4l-11.6 51.5c-2.3 10.3-15.1 13.9-22 5.5l-63-76.3c-2.1-2.5-3.2-5.7-3.2-9v-42.9c0-6 3.6-11.5 9-13.8L121 298.5l26-118.2-71.1-14.1c-6.8-1.4-13.2-3.8-19.1-7.1l-36.4 12c-10 3.3-19.9-4.8-17.7-15l15.9-74.9c1.9-9.1 11-14.5 19.9-12.1L248 111l157.9-158c14-14 36.6-14 50.6 0l41.4 41.4c14 14 14 36.6 0 50.6l-46.1 46.1c-1.3 6.5.6 13.4 5.3 18.1l20.8 20.8z"/>
</svg>
